<?xml version="1.0" encoding="UTF-8"?> <svg xmlns="http://www.w3.org/2000/svg" width="164" height="38" viewBox="0 0 164 38" fill="none"><path d="M64.1592 13.1097L52.9363 24.182H63.6711V29.1419H45.8389V24.182L56.9287 13.1097H46.0605V8.14893H64.1592V13.1097Z" fill="white"></path><path d="M85.0369 20.3288H70.5759C71.0637 23.6059 73.1043 25.0231 75.1446 25.0231C77.0967 25.0231 78.8709 23.7387 79.6251 21.4804L84.5047 23.517C82.9077 27.8576 78.7378 29.7174 75.1446 29.7174C70.6645 29.7174 65.1641 26.706 65.1641 18.6459C65.1641 10.629 70.62 7.57361 75.1446 7.57361C82.109 7.57361 85.6577 13.2426 85.0369 20.3288ZM70.6645 16.5196H79.6251C79.0484 13.5523 77.0967 12.2679 75.1446 12.2679C73.2374 12.2679 71.2412 13.5523 70.6645 16.5196Z" fill="white"></path><path d="M106.53 15.5009V29.142H101.385V17.4055C101.385 13.9068 99.5661 12.5336 97.4368 12.5336C95.3076 12.5336 92.4686 14.4382 92.4686 19.9295V29.142H87.3232V8.14898H92.4686V10.6738C93.242 9.68949 94.2332 8.89739 95.3645 8.35953C96.4958 7.82168 97.7365 7.55267 98.9894 7.57358C103.071 7.57359 106.53 10.3193 106.53 15.5009Z" fill="white"></path><path d="M108.861 3.14419C108.861 1.37244 110.37 0 112.233 0C114.096 0 115.604 1.37244 115.604 3.14419C115.604 4.87193 114.096 6.20035 112.233 6.20035C110.37 6.20035 108.861 4.87193 108.861 3.14419ZM109.66 8.14897H114.805V29.142H109.66V8.14897Z" fill="white"></path><path d="M126.413 13.1097V21.9229C126.413 24.0044 127.3 24.8014 129.518 24.8014C130.419 24.8189 131.312 24.6375 132.135 24.27V29.186C130.978 29.5721 129.762 29.752 128.542 29.7173C124.949 29.7173 121.267 28.3889 121.267 22.2326V13.1097H116.698V8.14895H121.267V3.63152L126.413 2.52399V8.14895H132.135V13.1097H126.413Z" fill="white"></path><path d="M152.348 8.14901V29.6734C152.348 35.52 147.069 38 142.633 38C139.395 38 136.024 36.6268 134.471 33.7483L138.597 30.6481C139.173 32.2862 140.681 33.0393 142.5 33.0393C144.851 33.0393 147.202 31.8437 147.202 29.0092V27.6359C146.586 28.3146 145.832 28.855 144.991 29.2215C144.15 29.588 143.24 29.7723 142.323 29.7622C136.955 29.8062 133.673 24.4917 133.673 17.6272C133.673 13.6851 134.915 10.1864 137.31 7.57361L141.214 10.9395C140.016 12.2239 138.952 14.4822 138.952 17.6272C138.952 21.8789 140.548 24.8014 143.254 24.8014C145.872 24.8014 147.202 22.5431 147.202 19.0444V8.14901H152.348Z" fill="white"></path><path d="M157.696 27.1635C157.696 25.4735 159.08 24.6929 160.364 24.6929C161.648 24.6929 163.032 25.4735 163.032 27.1635C163.032 28.9816 161.605 29.6403 160.364 29.6403C159.123 29.6403 157.696 28.9816 157.696 27.1635ZM162.666 27.1635C162.666 25.7242 161.476 25.0577 160.364 25.0577C159.259 25.0577 158.062 25.7242 158.062 27.1635C158.062 28.7096 159.295 29.2756 160.364 29.2756C161.44 29.2756 162.666 28.7096 162.666 27.1635ZM159.209 27.1635C159.209 26.0607 159.812 25.6165 160.4 25.6165C160.647 25.6132 160.888 25.6978 161.078 25.8552C161.269 26.0126 161.397 26.2326 161.44 26.4757L160.93 26.7477C160.873 26.3036 160.636 26.1322 160.379 26.1322C160.048 26.1322 159.769 26.4112 159.769 27.1635C159.769 27.9582 160.07 28.194 160.393 28.194C160.658 28.194 160.902 28.0509 160.988 27.5785L161.512 27.8002C161.461 28.0585 161.321 28.291 161.117 28.4572C160.913 28.6233 160.656 28.7127 160.393 28.7097C159.848 28.7096 159.209 28.3449 159.209 27.1635Z" fill="white"></path><path d="M16.8344 17.2455C21.1306 17.1471 25.2178 15.3742 28.2217 12.3059C31.2256 9.23759 32.9076 5.11751 32.9081 0.826904H8.22691L0 17.2551H15.9939V17.2667C11.712 17.3855 7.64532 19.1671 4.65856 22.2328C1.6718 25.2985 0.000501858 29.4064 0 33.6832H24.6812L32.9081 17.2551H16.8344V17.2455Z" fill="url(#paint0_linear_159_841)"></path><defs><linearGradient id="paint0_linear_159_841" x1="7.84417" y1="28.0004" x2="29.5819" y2="0.785161" gradientUnits="userSpaceOnUse"><stop stop-color="#6E32E0"></stop><stop offset="1" stop-color="#050224"></stop></linearGradient></defs></svg> 